<svg xmlns="http://www.w3.org/2000/svg" width="28" height="37" fill="none"><path fill="#001C47" d="M14 2c2.76 0 5 2.24 5 5s-2.24 5-5 5-5-2.24-5-5 2.24-5 5-5Zm0-2c-3.87 0-7 3.13-7 7s3.13 7 7 7 7-3.14 7-7-3.13-7-7-7Zm6.37 13.35c-.5.5-1.06.93-1.66 1.3 2.87 1.87 4.38 5.08 4.97 7.35H4.3c.57-2.29 2.06-5.5 4.97-7.36a9.12 9.12 0 0 1-1.66-1.31C3.35 16.4 2 21.84 2 24h24c0-2.14-1.44-7.56-5.63-10.65ZM3.184 31.004c-.274 0-.519.05-.735.148a1.476 1.476 0 0 0-.543.43 1.94 1.94 0 0 0-.34.676c-.078.263-.117.56-.117.89 0 .443.063.825.188 1.145.125.318.315.563.57.734.255.17.578.254.969.254.242 0 .478-.023.707-.07.229-.047.466-.11.71-.191v.796a3.632 3.632 0 0 1-.702.2c-.237.041-.51.062-.82.062-.584 0-1.068-.121-1.454-.363a2.217 2.217 0 0 1-.86-1.024c-.187-.44-.28-.955-.28-1.547 0-.432.06-.828.18-1.187.119-.36.294-.67.523-.93.229-.263.511-.465.847-.605a2.953 2.953 0 0 1 1.16-.215c.287 0 .568.033.844.098.279.062.537.152.774.27l-.328.773a4.793 4.793 0 0 0-.622-.242 2.235 2.235 0 0 0-.671-.102Zm7.707 2.133c0 .44-.056.84-.168 1.203-.11.36-.275.67-.496.93a2.21 2.21 0 0 1-.832.597c-.334.14-.724.211-1.172.211-.456 0-.852-.07-1.188-.21a2.19 2.19 0 0 1-.832-.602 2.601 2.601 0 0 1-.492-.934 4.148 4.148 0 0 1-.164-1.203c0-.589.096-1.102.289-1.54.195-.44.49-.78.887-1.023.398-.244.9-.367 1.507-.367.594 0 1.088.121 1.48.363.394.243.688.584.884 1.024.198.437.297.954.297 1.55Zm-4.36 0c0 .44.06.821.18 1.144.12.32.303.568.55.742.25.172.571.258.962.258.393 0 .713-.086.96-.258.248-.174.43-.421.547-.742.118-.323.176-.704.176-1.144 0-.67-.134-1.193-.402-1.57-.266-.38-.69-.57-1.274-.57-.39 0-.712.085-.964.257-.25.172-.435.418-.555.738-.12.318-.18.7-.18 1.145ZM16.883 36H15.73l-2.797-4.559h-.036c.01.154.02.317.028.489.01.172.018.349.023.53.008.183.014.368.02.556V36h-.852v-5.71h1.145l2.793 4.526h.027a205.977 205.977 0 0 1-.043-.988c-.005-.185-.01-.363-.012-.535v-3.004h.856V36Zm3.48 0h-.941v-4.914H17.75v-.797h4.281v.797h-1.668V36Zm6.082 0-.558-1.586h-2.184L23.145 36h-.989l2.125-5.734h1.04L27.44 36h-.996Zm-.8-2.39-.543-1.563-.09-.285a77.935 77.935 0 0 1-.215-.707 8.089 8.089 0 0 1-.098.36c-.036.13-.073.252-.11.366-.033.115-.06.203-.077.266l-.547 1.562h1.68Z"/></svg>