<svg xmlns="http://www.w3.org/2000/svg" width="127" height="60" fill="none"><path fill="#516D98" d="M100.056 34.832c.128-.043.32-.064.576-.064.725 0 1.088.47 1.088 1.408 0 .512-.117.95-.352 1.312-.213.341-.555.555-1.024.64-1.941.363-3.85.768-5.728 1.216l-.096.768c-.597 4.203-1.792 7.307-3.584 9.312-1.77 2.027-3.99 3.04-6.656 3.04-1.77 0-3.147-.437-4.128-1.312-.96-.853-1.44-1.952-1.44-3.296 0-2.24 1.003-4.235 3.008-5.984 2.005-1.75 5.045-3.296 9.12-4.64l.64-4.512c.085-.512.192-1.195.32-2.048-1.003 2.645-2.283 4.619-3.84 5.92-1.557 1.301-3.296 1.952-5.216 1.952-1.835 0-3.232-.555-4.192-1.664-.96-1.13-1.44-2.581-1.44-4.352 0-.79.085-1.653.256-2.592.17-.96.437-2.25.8-3.872.32-1.472.555-2.645.704-3.52.17-.875.256-1.653.256-2.336 0-1.024-.395-1.536-1.184-1.536-.619 0-1.355.31-2.208.928-.832.597-1.717 1.525-2.656 2.784-.299.405-.63.608-.992.608-.299 0-.565-.139-.8-.416a1.668 1.668 0 0 1-.32-.992c0-.661.299-1.408.896-2.24 2.176-2.987 4.725-4.48 7.648-4.48 1.301 0 2.315.395 3.04 1.184.747.79 1.12 1.952 1.12 3.488 0 1.11-.107 2.25-.32 3.424-.192 1.152-.49 2.624-.896 4.416a62.6 62.6 0 0 0-.576 2.592c-.128.64-.192 1.173-.192 1.6 0 1.088.192 1.867.576 2.336.384.47 1.056.704 2.016.704 1.152 0 2.325-.63 3.52-1.888 1.216-1.28 2.304-3.21 3.264-5.792.981-2.581 1.685-5.739 2.112-9.472.107-.939.352-1.6.736-1.984.384-.405.939-.608 1.664-.608 1.493 0 2.24.747 2.24 2.24 0 .256-.01.459-.032.608a988.677 988.677 0 0 1-1.248 8.608 257.304 257.304 0 0 1-.704 4.736c-.235 1.621-.47 3.264-.704 4.928a69.96 69.96 0 0 1 4.928-1.152Zm-9.696 5.76c-5.163 1.792-7.744 3.968-7.744 6.528 0 .597.181 1.088.544 1.472.384.405.917.608 1.6.608 2.965 0 4.821-2.795 5.568-8.384l.032-.224Zm25.715-8.416c.277 0 .49.139.64.416.149.277.224.63.224 1.056 0 1.024-.31 1.632-.928 1.824-1.28.448-2.688.704-4.224.768-.406 1.792-1.206 3.232-2.4 4.32-1.195 1.067-2.55 1.6-4.064 1.6-1.28 0-2.379-.31-3.296-.928a5.937 5.937 0 0 1-2.048-2.464c-.47-1.024-.704-2.133-.704-3.328 0-1.621.31-3.061.928-4.32.618-1.28 1.472-2.272 2.56-2.976a6.378 6.378 0 0 1 3.616-1.088c1.621 0 2.922.565 3.904 1.696 1.002 1.11 1.589 2.485 1.76 4.128 1.002-.064 2.197-.277 3.584-.64.17-.043.32-.064.448-.064Zm-10.496 6.592c.682 0 1.269-.277 1.76-.832.512-.555.853-1.355 1.024-2.4a4.53 4.53 0 0 1-1.536-1.76 5.335 5.335 0 0 1-.512-2.304c0-.341.032-.683.096-1.024h-.16c-.854 0-1.568.416-2.144 1.248-.555.81-.832 1.963-.832 3.456 0 1.173.224 2.07.672 2.688.469.619 1.013.928 1.632.928Zm11.941 3.392c-1.002 0-1.813-.405-2.432-1.216-.597-.832-.896-1.973-.896-3.424 0-1.6.107-3.061.32-4.384a27.644 27.644 0 0 1 1.056-4.256c.214-.64.512-1.099.896-1.376.384-.277.992-.416 1.824-.416.47 0 .79.075.96.224.192.15.288.373.288.672 0 .17-.117.747-.352 1.728-.213.79-.384 1.504-.512 2.144-.426 2.24-.64 3.733-.64 4.48 0 .448.054.768.16.96.107.17.278.256.512.256.32 0 .726-.32 1.216-.96.491-.661 1.003-1.643 1.536-2.944.555-1.323 1.078-2.912 1.568-4.768.171-.64.427-1.099.768-1.376.363-.277.896-.416 1.6-.416.47 0 .8.128.992.384.214.235.32.597.32 1.088 0 .533-.042 1.13-.128 1.792-.085.64-.181 1.301-.288 1.984a90.583 90.583 0 0 0-.512 3.744c-.128 1.11-.192 2.379-.192 3.808 0 .81-.17 1.397-.512 1.76-.32.341-.853.512-1.6.512-.789 0-1.344-.203-1.664-.608-.298-.427-.448-1.237-.448-2.432 0-.235.022-.757.064-1.568-.362 1.493-.906 2.635-1.632 3.424-.704.79-1.461 1.184-2.272 1.184Z"/><path fill="#001C47" d="M27.776 21.52c0 1.813-.64 3.381-1.92 4.704-1.28 1.301-3.147 2.24-5.6 2.816 1.323.363 2.325.96 3.008 1.792a4.242 4.242 0 0 1 1.024 2.816c0 1.685-.533 3.147-1.6 4.384-1.045 1.237-2.581 2.197-4.608 2.88-2.027.661-4.47.992-7.328.992-1.067 0-1.92-.032-2.56-.096-.021.597-.277 1.045-.768 1.344-.49.299-1.12.448-1.888.448-.768 0-1.301-.17-1.6-.512-.277-.341-.395-.843-.352-1.504a90.833 90.833 0 0 1 1.12-9.376 92.315 92.315 0 0 1 2.112-9.504c.15-.533.448-.907.896-1.12.448-.213 1.035-.32 1.76-.32 1.301 0 1.952.363 1.952 1.088 0 .299-.064.64-.192 1.024-.555 1.664-1.11 3.925-1.664 6.784a80.38 80.38 0 0 0-1.184 8.128 31.36 31.36 0 0 0 2.496.128c2.987 0 5.173-.427 6.56-1.28 1.408-.875 2.112-1.984 2.112-3.328 0-.939-.405-1.728-1.216-2.368-.79-.64-2.123-.992-4-1.056-.427-.021-.725-.128-.896-.32-.17-.192-.256-.501-.256-.928 0-.619.128-1.12.384-1.504.256-.384.725-.587 1.408-.608 1.515-.043 2.88-.267 4.096-.672 1.237-.405 2.208-.97 2.912-1.696.704-.747 1.056-1.61 1.056-2.592 0-1.237-.608-2.208-1.824-2.912-1.216-.725-3.083-1.088-5.6-1.088-2.283 0-4.49.299-6.624.896-2.133.576-3.947 1.312-5.44 2.208-.683.405-1.259.608-1.728.608-.384 0-.683-.128-.896-.384-.192-.277-.288-.619-.288-1.024 0-.533.107-.992.32-1.376.235-.384.779-.821 1.632-1.312 1.792-1.024 3.893-1.824 6.304-2.4a31.697 31.697 0 0 1 7.392-.864c3.861 0 6.741.65 8.64 1.952 1.899 1.301 2.848 3.019 2.848 5.152Zm13.376 13.344c.277 0 .49.128.64.384.17.256.256.608.256 1.056 0 .853-.203 1.515-.608 1.984-.79.96-1.91 1.845-3.36 2.656a9.189 9.189 0 0 1-4.608 1.216c-2.24 0-3.979-.608-5.216-1.824-1.238-1.216-1.856-2.88-1.856-4.992 0-1.472.31-2.837.928-4.096.618-1.28 1.472-2.293 2.56-3.04 1.11-.747 2.357-1.12 3.744-1.12 1.237 0 2.23.373 2.976 1.12.746.725 1.12 1.717 1.12 2.976 0 1.472-.534 2.741-1.6 3.808-1.046 1.045-2.827 1.877-5.344 2.496.533.981 1.546 1.472 3.04 1.472.96 0 2.048-.33 3.264-.992a10.98 10.98 0 0 0 3.2-2.656c.256-.299.544-.448.864-.448Zm-8.064-4.64c-.79 0-1.462.459-2.016 1.376-.534.917-.8 2.027-.8 3.328v.064c1.258-.299 2.25-.747 2.976-1.344.725-.597 1.088-1.29 1.088-2.08 0-.405-.118-.725-.352-.96-.214-.256-.512-.384-.896-.384Zm30.642 4.64c.278 0 .49.128.64.384.17.256.256.608.256 1.056 0 .853-.202 1.515-.608 1.984-.917 1.13-1.92 2.059-3.008 2.784-1.088.725-2.336 1.088-3.744 1.088-2.602 0-4.416-1.088-5.44-3.264a7.814 7.814 0 0 1-2.208 2.304c-.917.64-1.898.96-2.944.96-2.026 0-3.52-.821-4.48-2.464-.938-1.664-1.408-3.904-1.408-6.72 0-1.045.054-2.208.16-3.488h-1.312c-.64 0-1.077-.117-1.312-.352-.213-.235-.32-.608-.32-1.12 0-1.195.48-1.792 1.44-1.792h1.952c.406-2.261.97-4.31 1.696-6.144.726-1.835 1.6-3.296 2.624-4.384 1.024-1.088 2.134-1.632 3.328-1.632.896 0 1.6.395 2.112 1.184.512.79.768 1.781.768 2.976 0 3.008-1.162 5.675-3.488 8h2.912c.406-2.261.97-4.31 1.696-6.144.726-1.835 1.6-3.296 2.624-4.384 1.024-1.088 2.134-1.632 3.328-1.632.896 0 1.6.395 2.112 1.184.512.79.768 1.781.768 2.976 0 3.008-1.162 5.675-3.488 8h2.912c.342 0 .587.075.736.224.15.15.224.427.224.832 0 1.472-1.205 2.208-3.616 2.208H54.77a50.274 50.274 0 0 0-.096 3.136c0 2.219.256 3.776.768 4.672.534.896 1.366 1.344 2.496 1.344a3.82 3.82 0 0 0 2.432-.832c.704-.555 1.536-1.387 2.496-2.496.256-.299.544-.448.864-.448ZM48.178 17.136c-.32 0-.682.405-1.088 1.216-.384.79-.757 1.899-1.12 3.328a46.75 46.75 0 0 0-.864 4.704c1.259-1.088 2.198-2.304 2.816-3.648.64-1.365.96-2.603.96-3.712 0-1.259-.234-1.888-.704-1.888Zm9.952 0c-.32 0-.682.405-1.088 1.216-.384.79-.757 1.899-1.12 3.328a46.75 46.75 0 0 0-.864 4.704c1.259-1.088 2.198-2.304 2.816-3.648.64-1.365.96-2.603.96-3.712 0-1.259-.234-1.888-.704-1.888ZM47.346 38.64c.64 0 1.28-.299 1.92-.896.64-.597 1.184-1.333 1.632-2.208-.106-.661-.16-1.515-.16-2.56 0-1.045.054-2.208.16-3.488h-6.08a50.274 50.274 0 0 0-.096 3.136c0 2.155.224 3.701.672 4.64.47.917 1.12 1.376 1.952 1.376Zm28.962-3.776c.277 0 .49.128.64.384.17.256.256.608.256 1.056 0 .853-.203 1.515-.608 1.984-.79.96-1.91 1.845-3.36 2.656a9.188 9.188 0 0 1-4.608 1.216c-2.24 0-3.979-.608-5.216-1.824-1.237-1.216-1.856-2.88-1.856-4.992 0-1.472.31-2.837.928-4.096.619-1.28 1.472-2.293 2.56-3.04 1.11-.747 2.357-1.12 3.744-1.12 1.237 0 2.23.373 2.976 1.12.747.725 1.12 1.717 1.12 2.976 0 1.472-.533 2.741-1.6 3.808-1.045 1.045-2.827 1.877-5.344 2.496.533.981 1.547 1.472 3.04 1.472.96 0 2.048-.33 3.264-.992a10.98 10.98 0 0 0 3.2-2.656c.256-.299.544-.448.864-.448Zm-8.064-4.64c-.79 0-1.461.459-2.016 1.376-.533.917-.8 2.027-.8 3.328v.064c1.259-.299 2.25-.747 2.976-1.344.725-.597 1.088-1.29 1.088-2.08 0-.405-.117-.725-.352-.96-.213-.256-.512-.384-.896-.384Zm19.282 1.248c.47 0 .865.17 1.184.512.342.32.513.725.513 1.216 0 .277-.064.576-.192.896a5.413 5.413 0 0 1-1.44 1.984c-.62.533-1.302.8-2.048.8-.598 0-1.11-.213-1.537-.64-.405-.427-.608-1.003-.608-1.728 0-.405.022-.843.065-1.312.042-.341.064-.576.064-.704 0-.17-.043-.299-.129-.384a.304.304 0 0 0-.255-.128c-.3 0-.704.363-1.216 1.088-.513.704-1.025 1.643-1.537 2.816a22.986 22.986 0 0 0-1.248 3.712c-.234 1.024-.5 1.707-.8 2.048-.298.341-.789.512-1.471.512-.811 0-1.387-.427-1.728-1.28-.32-.853-.48-2.219-.48-4.096 0-2.773.394-5.408 1.184-7.904.192-.619.5-1.067.928-1.344.447-.299 1.066-.448 1.855-.448.427 0 .726.053.897.16.17.107.255.31.255.608 0 .341-.16 1.11-.48 2.304-.213.853-.384 1.6-.512 2.24-.128.64-.234 1.43-.32 2.368.704-1.835 1.494-3.328 2.368-4.48.875-1.152 1.729-1.973 2.56-2.464.833-.49 1.59-.736 2.273-.736.618 0 1.087.181 1.407.544.342.341.513.853.513 1.536 0 .405-.118 1.173-.352 2.304h.287Z"/></svg>